<svg width="117" height="40" viewBox="0 0 117 40" fill="none" xmlns="http://www.w3.org/2000/svg">
<g clip-path="url(#clip0_1_32320)">
<path fill-rule="evenodd" clip-rule="evenodd" d="M52.3551 26.9497C52.3551 24.7701 51.3105 23.086 49.3655 22.1954C47.4802 21.3316 44.8173 21.3423 42.8723 22.1557C41.9068 22.5595 41.0641 23.1215 40.3441 23.8415L42.0299 25.6854C43.0362 24.5352 44.4299 23.894 45.9806 23.894C47.9901 23.894 49.4737 24.9054 49.5094 26.9497H46.1386C44.1114 26.9497 41.9139 27.4447 40.6866 28.9382C40.1595 29.579 39.8962 30.3561 39.8962 31.2689C39.8962 32.9761 40.7908 34.2536 42.3194 34.9826C43.0921 35.352 43.9789 35.536 44.9795 35.536C46.8213 35.536 48.535 34.8725 49.6418 33.4673V35.115H52.3548V26.9497H52.3551ZM49.5105 30.0592C49.5105 31.833 48.0724 33.2706 46.2987 33.2706H45.5854C44.1965 33.2706 42.9255 32.6137 42.9255 31.1639C42.9255 29.443 44.8335 28.9777 46.4022 28.9777H49.5105V30.0592Z" fill="#1E43AE"/>
<path fill-rule="evenodd" clip-rule="evenodd" d="M34.1892 35.1149C34.1892 30.7332 34.1627 26.352 34.1627 21.9713H31.2394V35.1149H34.1892Z" fill="#1E43AE"/>
<path fill-rule="evenodd" clip-rule="evenodd" d="M34.2422 24.4734H39.0357V21.7339C36.9376 21.7339 35.1308 22.4108 34.2422 24.4734Z" fill="#1E43AE"/>
<path fill-rule="evenodd" clip-rule="evenodd" d="M28.6137 35.1149V21.9713H25.6637V33.0603H22.0287C21.1161 33.0603 20.3959 32.7838 19.8688 32.2307C19.3423 31.6777 19.0789 30.8737 19.0789 29.8205V21.9713H16.1288V30.1102C16.1288 31.8664 16.5942 33.2095 17.5247 34.1403C18.4556 35.0708 19.6936 35.5362 21.2388 35.5362C23.1048 35.5362 24.7151 34.7868 25.6899 33.263V35.1152H28.6137V35.1149Z" fill="#1E43AE"/>
<path fill-rule="evenodd" clip-rule="evenodd" d="M10.6061 24.9211H14.2147V21.9711C8.1407 21.9711 10.1218 21.9711 4.04778 21.9711V24.9211H7.65645V31.7691C7.65645 33.9593 8.79827 35.1148 11.0012 35.1148H14.241V32.6649H10.6061V24.9211Z" fill="#1E43AE"/>
<path fill-rule="evenodd" clip-rule="evenodd" d="M7.65644 21.7192C9.126 21.2 10.2395 19.9257 10.5311 18.3624H7.65644V21.7192Z" fill="#1E43AE"/>
<path fill-rule="evenodd" clip-rule="evenodd" d="M2.28882e-05 35.115H3.02906V16.2819H2.28882e-05V35.115Z" fill="#1E43AE"/>
<path d="M88.6705 34.9244C88.017 34.9244 87.4871 34.395 87.4871 33.7414C87.4871 33.0878 88.017 32.558 88.6705 32.558H107.173C111.274 32.558 114.634 29.1979 114.634 25.0972C114.634 20.996 111.274 17.6363 107.173 17.6363C106.425 17.6363 105.766 17.3012 105.766 16.4529C105.766 11.1387 101.458 6.8309 96.1438 6.8309C94.1364 6.8309 92.3597 7.49142 90.9151 8.59144C89.3493 9.78431 88.16 11.4888 87.4737 13.4329C87.2306 14.2027 86.427 14.4997 85.7854 14.1617C82.5887 12.4768 78.7128 13.5008 76.3937 16.0121C74.8926 17.638 74.2653 19.6174 74.6766 21.6263C74.9724 23.0721 76.7991 25.2885 77.6851 26.5806L80.8727 21.9715H84.2175L79.5819 28.2928L84.639 35.1154H81.2673L77.6849 30.0844L74.1033 35.1154H70.7316L75.8153 28.2928C73.6785 25.3165 71.3343 23.0049 72.1012 18.9931C72.7514 15.5915 75.6897 12.7642 78.9128 11.5963C81.0389 10.8266 83.4268 10.7161 85.6955 11.5442C87.5821 7.38554 91.409 4.46469 96.1435 4.46469C102.353 4.46469 107.5 9.19964 108.078 15.3119C113.085 15.7745 117 20.0154 117 25.0976C117 30.505 112.581 34.925 107.173 34.925H88.6703L88.6705 34.9244Z" fill="#020183"/>
<path fill-rule="evenodd" clip-rule="evenodd" d="M55.1385 16.2819V35.115H58.1675V27.4499H61.3754L66.4023 35.115H70.1686L64.7103 27.23C67.3532 26.6148 69.2299 24.6745 69.2299 21.866C69.2299 19.6338 68.083 17.9202 66.0956 16.9798C65.1122 16.5145 63.971 16.2819 62.6714 16.2819H55.1383H55.1385ZM58.1675 18.8632H62.6716C64.6462 18.8632 66.1488 19.8544 66.1488 21.866C66.1488 23.8772 64.6462 24.8684 62.6716 24.8684H58.1675V18.8634V18.8632Z" fill="#020183"/>
</g>
<defs>
<clipPath id="clip0_1_32320">
<rect width="117" height="31.0719" fill="white" transform="translate(0 4.46405)"/>
</clipPath>
</defs>
</svg>
